PathFileType	4	(X/Y/Z)	T1_P1_Vision_NoMovement_1_0-649.trc
DataRate	CameraRate	NumFrames	NumMarkers	Units	OrigDataRate	OrigDataStartFrame	OrigNumFrames
60	60	5	27	m	60	243	649
Frame#	Time	RHip			RKnee			RAnkle			RBigToe			RSmallToe			RHeel			LHip			LKnee			LAnkle			LBigToe			LSmallToe			LHeel			Neck			Head			Nose			RShoulder			RElbow			RWrist			RThumb			RIndex			RPinky			LShoulder			LElbow			LWrist			LThumb			LIndex			LPinky		
		X1	Y1	Z1	X2	Y2	Z2	X3	Y3	Z3	X4	Y4	Z4	X5	Y5	Z5	X6	Y6	Z6	X7	Y7	Z7	X8	Y8	Z8	X9	Y9	Z9	X10	Y10	Z10	X11	Y11	Z11	X12	Y12	Z12	X13	Y13	Z13	X14	Y14	Z14	X15	Y15	Z15	X16	Y16	Z16	X17	Y17	Z17	X18	Y18	Z18	X19	Y19	Z19	X20	Y20	Z20	X21	Y21	Z21	X22	Y22	Z22	X23	Y23	Z23	X24	Y24	Z24	X25	Y25	Z25	X26	Y26	Z26	X27	Y27	Z27
244	4.066666666666666	-66.16677761152326	3789.120438431254	-546.2503402100206	290.57007420460235	3979.048886274358	-528.1923555993303	629.4226537089106	4123.089858772539	-526.5758936767007	689.9956525919098	3984.1285603129368	-451.8041201418771	684.3231021654896	3937.271719972055	-497.66292170096557	676.7699218233972	4164.1896460714015	-531.5381876476367	-102.10689922536348	3905.5815162601048	-364.05030464316104	242.41782439667375	4005.695177325803	-378.49175328313413	625.6490903471087	4253.783231522689	-450.5602278361858	667.1859100740203	3969.497303044817	-345.7723028772684	676.7691415167938	4123.992375341647	-345.4331317745944	675.4340882780789	4318.162937976448	-492.28296696082566	-679.5606829569145	3685.729349287852	-498.0268462658209	-916.6563433936577	3540.0513757803774	-431.8258019866567	-787.6674695752	3575.4766057968186	-408.6031977653691	-558.3705056633421	3653.2824542147355	-650.7741727579423	-283.84221110729607	3694.040919397161	-695.1623938507133	-26.710428232153124	3641.950421503844	-608.128510220046	86.18991968778589	3742.066939785637	-561.5986694843446	112.88282927911222	3721.051113810264	-557.3973622609208	100.75575609038886	3654.2179033869866	-580.4493335729401	-618.9894312947933	3789.9655173904025	-383.713602135137	-386.46621316487693	3983.590400361909	-346.0037610741191	-122.22379408796984	3943.8327156612004	-243.76675505086493	19.856639004389525	3900.221289477622	-267.3042753831574	26.782529683420016	3908.155770558541	-208.82868738691235	8.181162845073484	3982.4774833080423	-217.6967262282123
245	4.083333333333333	-66.22888538136571	3789.1533292863182	-546.3188023192688	284.46108068328806	3975.2984145894957	-526.3953362121049	629.3235863110687	4122.540295928945	-526.3175389424124	688.4876786212465	3999.848158733655	-463.5706579191188	687.4333317739828	3955.268969452363	-505.03834581475604	676.3731578638854	4163.732236351082	-531.2870394480871	-102.20671864378646	3905.6201904220356	-364.1219892229327	242.38444254553596	4005.828656923059	-378.68024407290693	627.1412425806936	4256.4279215958095	-458.02294992493364	661.1983624280776	3966.6257551184167	-346.55670150484406	676.5229757599573	4124.271680732401	-345.4574405910933	671.4957263628759	4299.470354198135	-483.29896003509384	-679.6010130075202	3685.7541491122183	-498.0157516036001	-916.6000677695996	3540.063388191184	-431.74513161105557	-787.6083409605545	3575.2565948326	-408.5247041555846	-558.4261403000819	3653.4049706137466	-650.7777747407542	-289.3233217636911	3693.896718103426	-689.8434190802675	-27.76798315778452	3625.1563886020913	-594.2458938670209	81.08744802005745	3739.9766790656336	-561.9533024696905	111.83615017727936	3694.3029567971475	-550.926033480946	95.33070169888292	3651.869780482431	-580.8599088560871	-618.9784210060425	3790.0896349741474	-383.6742168936053	-391.97257233855083	3981.7925257533143	-346.6016564965895	-122.30563492759585	3943.731283930899	-243.75245147751676	19.395836640616576	3884.829593396309	-261.7353176665964	26.750339250774182	3907.874264482777	-208.8435150396292	-1.9780643159803306	3976.3304774059457	-216.78930762643327
246	4.1	-65.64240384514373	3789.9069955216655	-552.623823166557	284.4115197761101	3975.2632858635175	-526.3511657556361	633.5592786153045	4153.031813305874	-533.0918086766828	688.718818528579	4000.6637184637334	-463.78281759705817	681.8440474138059	3951.8732930431843	-502.9744465424985	675.9882638510832	4165.588480435956	-526.1409591724461	-102.20823030033522	3905.791344908274	-364.2028911189224	236.10582512677001	4001.7138895973117	-376.8570891769496	621.9878683021857	4233.143645521433	-442.64121648485394	660.9991995863024	3966.2602604577914	-346.4310270475964	676.5371334447824	4123.757981562973	-345.28706995087305	671.3337322595287	4298.320782895046	-482.8479003408823	-679.567280781646	3685.757435521416	-498.0319741373316	-916.5755432301964	3540.095786997121	-431.7581880222271	-778.7242437928936	3553.9879775632894	-403.22196102417007	-558.3888989629331	3653.2202833390834	-650.7136667721486	-288.8590180980657	3693.397562779488	-695.2842002582267	-27.746677714273194	3625.188243019878	-594.2497822624849	85.9851172665853	3742.143967007692	-561.765735303752	111.79918268353292	3694.9558010404444	-551.2924527482439	95.34513437754569	3652.1069332055276	-580.9758880595094	-618.963117587063	3790.0163004641167	-383.6995625620678	-392.00511628604374	3981.836862429609	-346.5758603659466	-127.24941680871535	3940.227471007161	-242.4001019709492	13.642434379611222	3877.76603495363	-252.87874023320305	26.335743639144702	3907.5226818069586	-208.65777853055351	-2.088420315670501	3976.141630369932	-216.63288871329644
247	4.116666666666666	-66.25147960388277	3789.34906145869	-546.316556632887	282.34239721712237	3945.914077065598	-519.5831590655154	629.1901082705982	4122.836869789612	-526.5333905014586	693.7280454752639	4030.4859635612584	-470.3812727679621	683.3988795748053	3953.3435583744345	-510.0656320006735	674.9069643484364	4183.284437342503	-545.4951243860371	-102.24019266537046	3905.862720111468	-364.14230459411755	231.00884835354964	4001.487003490802	-377.1561841797389	621.0761873915375	4221.847219397066	-444.0953050147473	661.155285883148	3966.349529750123	-346.5565969082014	676.6496546699053	4123.944902029806	-345.4711144168177	681.4146559978889	4322.173570129931	-494.56320285631045	-679.5292607741694	3685.664027386401	-497.94760596465	-916.5612704630379	3539.97553819993	-431.75971677173214	-783.2506753393245	3576.2376178502655	-408.2242869147161	-558.3427450490094	3653.334609138925	-650.735942212984	-284.2770840084313	3694.6033603708706	-689.693770629294	-27.670094280389584	3625.3310698198447	-594.1815247355606	86.15630966048091	3742.541026945989	-561.8951630872549	112.73732445827801	3721.372952048594	-557.5471394280096	95.92296220030926	3678.015357990395	-587.3184254233396	-618.9374630540087	3789.7470838730505	-383.4994679248033	-391.97326792551723	3981.9473271236598	-346.71250015482275	-127.99322380455294	3967.347052184285	-247.0485889824078	13.7143409891992	3877.8258117064383	-252.75792835319393	26.53250490136373	3907.5016380494303	-208.53381832539068	-2.0823539820465955	3976.364628599997	-216.64564535857755
248	4.133333333333334	-66.20763121382079	3789.3361850817205	-546.2935650838888	288.65333576414827	3950.2883918483603	-521.6944009548866	638.8992994521541	4153.557117240204	-532.8289471116541	699.7732534622919	4035.3830745478654	-472.67528339155893	693.0690145006693	3986.3881687791923	-512.1093429677376	687.2761551081005	4219.89286989849	-554.7454247294581	-102.16833453696727	3905.802674737769	-364.11852817363473	242.16761585922907	4005.9429117515533	-372.96531627431665	627.243634281161	4256.640462500954	-457.83714103739857	677.9206377993522	4002.312568008653	-347.55323244426336	676.4131253331154	4124.174447839409	-345.1366792264505	678.5968960440047	4326.472565410029	-501.4819709665898	-679.539363239648	3685.6852266206192	-497.9009782324819	-916.4742069195677	3539.904233511711	-431.69943710053803	-787.5894620844674	3575.3980277614096	-408.64222876394325	-560.401352617817	3670.028045317198	-659.6900381960764	-289.25672634554905	3694.387407847382	-690.0547247475332	-27.541668162857665	3625.3394782302844	-594.3023108909914	86.23400476139705	3742.109871765869	-561.5435901059392	112.95903125417726	3720.1578158478956	-556.9022492399889	95.6077777202346	3652.380754015053	-580.9924045181236	-616.8131492302899	3771.8037648289073	-370.30014744831067	-391.8668995907434	3981.5949294781553	-346.66997105816955	-127.20063021278128	3940.2441120950443	-242.37673710728214	13.422012123121128	3877.0515627824575	-252.39202492616351	25.75218208186573	3880.4765517416467	-204.04633805886655	-2.055952636342439	3976.252826764219	-216.7159582244883
